{"title":"Eurovision Song Contest 2012 (2nd Semifinal) 720p","uid":7298702,"size":6173424409,"categoryP":"video","categoryS":"hd___tv_shows","magnet":"?xt=urn:btih:5d9cc367e96ec03a9514d058edaddcac712e6a85&amp;dn=Eurovision+Song+Contest+2012+%282nd+Semifinal%29+720p&amp;tr=udp%3A%2F%2Ftracker.openbittorrent.com%3A80&amp;tr=udp%3A%2F%2Fopen.demonii.com%3A1337&amp;tr=udp%3A%2F%2Ftracker.coppersurfer.tk%3A6969&amp;tr=udp%3A%2F%2Fexodus.desync.com%3A6969","seeders":1,"leechers":0,"uploader":"arymarc","files":1,"time":1337969916,"description":"+++++++++++++++++++++++++++++++++++++++++++++++++++++++++++++++++++++++++++++++\nThe video proposed here does not contain any logos and off-screen commentaries.\n+++++++++++++++++++++++++++++++++++++++++++++++++++++++++++++++++++++++++++++++\n\nBrief media specs:\nVideo: 1280x720 (16:9) at 50.000 fps, ~6112 kbps\nAudio: DTS 5.1 (48 kHz / 1510 kbps) \nAudio codec: DTS\nVideo codec: X.264\nFile format: MKV\n\n\nSource file (grabbed from the feed) that have been used for encoding:\nVIDEO SOURCE: MPEG2 4:2:2, 1080/50i, 35 Mbps\nAUDIO SOURCE: Dolby E 5.1, 24-bit\n\n\nMedia info:\n\nGeneral\n\nFormat                           : Matroska\nFormat version                   : Version 2\nFile size                        : 5.75 GiB\nDuration                         : 1h 45mn\nOverall bit rate                 : 7 777 Kbps\n\nVideo\nID                               : 1\nFormat                           : AVC\nFormat/Info                      : Advanced Video Codec\nFormat profile                   : &lt;a class=&quot;__cf_email__&quot; href=&quot;/cdn-cgi/l/email-protection&quot; data-cfemail=&quot;9ed6f7f9f6ded2aab0af&quot;&gt;[email&amp;#160;protected]&lt;/a&gt;&lt;script cf-hash='f9e31' type=&quot;text/javascript&quot;&gt;\n/* &lt;![CDATA[ */!function(){try{var t=&quot;currentScript&quot;in document?document.currentScript:function(){for(var t=document.getElementsByTagName(&quot;script&quot;),e=t.length;e--;)if(t[e].getAttribute(&quot;cf-hash&quot;))return t[e]}();if(t&amp;&amp;t.previousSibling){var e,r,n,i,c=t.previousSibling,a=c.getAttribute(&quot;data-cfemail&quot;);if(a){for(e=&quot;&quot;,r=parseInt(a.substr(0,2),16),n=2;a.length-n;n+=2)i=parseInt(a.substr(n,2),16)^r,e+=String.fromCharCode(i);e=document.createTextNode(e),c.parentNode.replaceChild(e,c)}}}catch(u){}}();/* ]]&gt; */&lt;/script&gt;\nFormat settings, CABAC           : Yes\nFormat settings, ReFrames        : 5 frames\nCodec ID                         : V_MPEG4/ISO/AVC\nDuration                         : 1h 45mn\nBit rate                         : 6 112 Kbps\nWidth                            : 1 280 pixels\nHeight                           : 720 pixels\nDisplay aspect ratio             : 16:9\nFrame rate                       : 50.000 fps\nColor space                      : YUV\nChroma subsampling               : 4:2:0\nBit depth                        : 8 bits\nScan type                        : Progressive\nBits/(Pixel*Frame)               : 0.133\nStream size                      : 4.52 GiB (79%)\nWriting library                  : x264 core 120 r2164 da19765\nLanguage                         : English\n\nAudio\nID                               : 2\nFormat                           : DTS\nFormat/Info                      : Digital Theater Systems\nCodec ID                         : A_DTS\nDuration                         : 1h 45mn\nBit rate mode                    : Constant\nBit rate                         : 1 510 Kbps\nChannel(s)                       : 6 channels\nChannel positions                : Front: L C R, Side: L R, LFE\nSampling rate                    : 48.0 KHz\nBit depth                        : 24 bits\nCompression mode                 : Lossy\nStream size                      : 1.12 GiB (19%)\nLanguage                         : English\n\nENJOY FROM WATCHING!","torrent":{"xt":"urn:btih:5d9cc367e96ec03a9514d058edaddcac712e6a85","amp;dn":"Eurovision+Song+Contest+2012+%282nd+Semifinal%29+720p","amp;tr":["udp%3A%2F%2Ftracker.openbittorrent.com%3A80","udp%3A%2F%2Fopen.demonii.com%3A1337","udp%3A%2F%2Ftracker.coppersurfer.tk%3A6969","udp%3A%2F%2Fexodus.desync.com%3A6969"],"infoHash":"5d9cc367e96ec03a9514d058edaddcac712e6a85","infoHashBuffer":{"type":"Buffer","data":[93,156,195,103,233,110,192,58,149,20,208,88,237,173,220,172,113,46,106,133]},"announce":[],"urlList":[]}}